<svg xmlns="http://www.w3.org/2000/svg" xmlns:svg="http://www.w3.org/2000/svg" id="islenskifaninn" width="675" height="450" x="0" y="0" version="1"><metadata id="metadata2700"/><rect width="675" height="450" x="0" y="0" style="fill:#003897;fill-opacity:1;fill-rule:evenodd;stroke-width:0" id="blarfeldur"/><path d="M 0.0000000,172.00000 L 189.00000,172.00000 L 189.00000,-1.0000000 L 297.00000,-1.0000000 L 297.00000,172.00000 L 675.00000,172.00000 L 675.00000,280.00000 L 297.00000,280.00000 L 297.00000,451.00000 L 189.00000,451.00000 L 189.00000,280.00000 L 0.0000000,280.00000 L 0.0000000,172.00000 z" style="fill:#fff;fill-rule:evenodd;stroke-width:0" id="hviturkross" fill-cmyk="(0 0 0 0)"/><path d="M 0.0000000,199.00000 L 216.00000,199.00000 L 216.00000,-1.0000000 L 270.00000,-1.0000000 L 270.00000,199.00000 L 675.00000,199.00000 L 675.00000,253.00000 L 270.00000,253.00000 L 270.00000,451.00000 L 216.00000,451.00000 L 216.00000,253.00000 L 0.0000000,253.00000 L 0.0000000,199.00000 z" style="fill:#d72828;fill-opacity:1;fill-rule:evenodd;stroke-width:0" id="raudurkross"/></svg>