<svg xmlns="http://www.w3.org/2000/svg" xmlns:svg="http://www.w3.org/2000/svg" id="svg378" width="1116.15" height="744.094" x="0" y="0" version="1"><metadata id="metadata2102"/><rect width="1116.15" height="744.094" x="-1116.15" y="-744.094" style="font-size:12px;fill:#fff;fill-opacity:1;fill-rule:evenodd;stroke:none;stroke-width:1.0247pt" id="rect149" transform="scale(-1)"/><rect width="1116.15" height="97.702" x="-1116.15" y="-167.458" style="font-size:12px;fill:#00c;fill-opacity:1;fill-rule:evenodd;stroke:none;stroke-width:1pt" id="rect585" transform="scale(-1)"/><rect width="1116.15" height="97.702" x="-1116.15" y="-676.783" style="font-size:12px;fill:#00c;fill-opacity:1;fill-rule:evenodd;stroke:none;stroke-width:1pt" id="rect688" transform="scale(-1)"/><path style="font-size:12px;fill:#00c;fill-opacity:1;fill-rule:evenodd;stroke-width:.969612pt" id="path706" d="M 396.6153,277.26023 556.65782,555.62557 720.13246,278.40364 Z"/><path style="font-size:12px;fill:#fff;fill-rule:evenodd;stroke-width:.969612pt" id="path704" d="m 526.42055,461.87342 30.44746,51.60052 31.10144,-51.38928 z"/><path style="font-size:12px;fill:#00c;fill-opacity:1;fill-rule:evenodd;stroke-width:.969612pt" id="path707" d="M 396.02573,465.89952 556.06825,187.53944 719.54299,464.75611 Z"/><path style="font-size:12px;fill:#fff;fill-rule:evenodd;stroke-width:.969612pt" id="path708" d="m 526.42055,278.46459 30.44746,-51.60052 31.10144,51.38928 z"/><path style="font-size:12px;fill:#fff;fill-rule:evenodd;stroke-width:.969612pt" id="path709" d="m 462.79638,394.00981 -31.45004,52.29308 59.43832,-0.18497 z"/><path style="font-size:12px;fill:#fff;fill-rule:evenodd;stroke-width:.969612pt" id="path710" d="m 431.89492,297.36341 59.9123,0.42037 -28.82483,52.69979 z"/><path style="font-size:12px;fill:#fff;fill-rule:evenodd;stroke-width:.969612pt" id="path711" d="m 651.68653,394.59938 30.271,51.70351 -60.61736,-0.77454 z"/><path style="font-size:12px;fill:#fff;fill-rule:evenodd;stroke-width:.969612pt" id="path712" d="m 681.40895,297.36341 -59.9123,0.42037 28.82483,52.69979 z"/><path style="font-size:12px;fill:#fff;fill-rule:evenodd;stroke-width:1pt" id="path716" d="m 515.34063,297.30246 -41.26465,74.86698 41.85422,73.09723 76.63475,1.76871 46.57036,-74.86594 -43.03336,-75.4555 z"/></svg>