<svg xmlns="http://www.w3.org/2000/svg" xmlns:svg="http://www.w3.org/2000/svg" id="svg548" width="729.92" height="486.61" version="1.1"><metadata id="metadata4107"/><rect id="rect551" width="729.92" height="486.61" x="0" y="0" style="font-size:12px;fill:#fff;fill-opacity:1;fill-rule:evenodd;stroke:none;stroke-width:2.1813;stroke-dasharray:none;stroke-opacity:1"/><rect id="rect552" width="729.92" height="140.91" x="0" y="345.7" style="font-size:12px;fill:#008900;fill-opacity:1;fill-rule:evenodd;stroke-width:1pt"/><rect id="rect553" width="729.92" height="140.91" x="0" y="174.729" style="font-size:12px;fill:#c23743;fill-opacity:1;fill-rule:evenodd;stroke-width:1pt"/><rect id="rect554" width="729.92" height="148.425" x="0" y="0" style="font-size:12px;fill:#000;fill-opacity:1;fill-rule:evenodd;stroke-width:1pt"/><g id="g4850" transform="translate(3.958874,0.0914852)"><path style="fill:#fff;fill-opacity:1;fill-rule:evenodd;stroke:#000;stroke-width:1.03763;stroke-linecap:butt;stroke-linejoin:miter;stroke-dasharray:none;stroke-opacity:1" id="path565" d="m 269.58744,421.99799 c 36.45222,-67.84478 158.65297,-292.5667 157.4473,-293.2145 -19.98447,-11.72914 16.15275,-29.746617 42.69264,-71.993396 -18.90735,45.405336 -16.90164,87.780536 -36.31252,75.581856 -32.28312,60.93315 -132.07343,247.18918 -156.88568,293.19116 -2.62719,-1.41156 -3.39942,-1.98695 -6.94174,-3.56512 z"/><path style="fill:#fff;fill-opacity:1;fill-rule:evenodd;stroke:#000;stroke-width:1.03763;stroke-linecap:butt;stroke-linejoin:miter;stroke-dasharray:none;stroke-opacity:1" id="path568" d="m 452.41988,424.66099 c -36.45222,-67.84478 -158.65297,-292.5667 -157.4473,-293.2145 19.98447,-11.72914 -16.15275,-29.74662 -42.69264,-71.993396 18.90735,45.405336 16.90164,87.780536 36.31252,75.581856 32.28312,60.93315 132.07343,247.18918 156.88568,293.19116 2.62719,-1.41156 3.39942,-1.98695 6.94174,-3.56512 z"/><path style="fill:#c23743;fill-opacity:1;fill-rule:evenodd;stroke:#000;stroke-width:1.09065;stroke-linecap:butt;stroke-linejoin:miter;stroke-dasharray:none;stroke-opacity:1" id="path555" d="m 359.77238,85.063883 c 114.84977,80.961107 112.96512,276.766157 0,344.549307 -105.43528,-71.54662 -120.49788,-265.47285 0,-344.549307 z"/><ellipse style="fill:#fffffb;fill-opacity:1;fill-rule:evenodd;stroke:none;stroke-width:1pt;stroke-linecap:butt;stroke-linejoin:miter;stroke-opacity:1" id="path557" cx="355.074" cy="494.666" rx="4.855" ry="7.445" transform="matrix(2.908399,0,0,2.908399,-671.9842,-1185.112)"/><path style="fill:#fff;fill-opacity:1;fill-rule:evenodd;stroke:#000;stroke-width:.359271;stroke-linecap:butt;stroke-linejoin:miter;stroke-dasharray:none;stroke-opacity:1" id="path558" d="m 359.05197,92.595408 c 32.29347,31.243942 31.76355,106.807662 0,132.966062 -29.6463,-27.61077 -33.88161,-102.44943 0,-132.966062 z"/><path style="fill:#fff;fill-opacity:1;fill-rule:evenodd;stroke:#000;stroke-width:.359271;stroke-linecap:butt;stroke-linejoin:miter;stroke-dasharray:none;stroke-opacity:1" id="path559" d="m 359.05197,288.40331 c 32.29347,31.24394 31.76355,106.80766 0,132.96606 -29.6463,-27.61077 -33.88161,-102.44943 0,-132.96606 z"/><rect style="font-size:12px;fill:#c23743;fill-opacity:1;fill-rule:evenodd;stroke-width:1pt" id="rect560" width="13.179" height="135.559" x="352.241" y="92.597"/><rect style="font-size:12px;fill:#c23743;fill-opacity:1;fill-rule:evenodd;stroke-width:1pt" id="rect561" width="13.179" height="135.559" x="354.124" y="286.522"/><path style="fill:#000;fill-opacity:1;fill-rule:evenodd;stroke:#000;stroke-width:.302378;stroke-linecap:butt;stroke-linejoin:miter;stroke-dasharray:none;stroke-opacity:1" id="path562" d="m 289.42425,177.31974 c 19.59259,36.47922 19.27108,124.70449 0,155.24603 -17.98653,-32.23727 -20.55611,-119.61599 0,-155.24603 z"/><path style="fill:#000;fill-opacity:1;fill-rule:evenodd;stroke:#000;stroke-width:.302378;stroke-linecap:butt;stroke-linejoin:miter;stroke-dasharray:none;stroke-opacity:1" id="path563" d="m 432.51455,179.20234 c 19.59259,36.47922 19.27108,124.70449 0,155.24603 -17.98653,-32.23727 -20.55611,-119.61599 0,-155.24603 z"/></g></svg>