<svg xmlns="http://www.w3.org/2000/svg" xmlns:svg="http://www.w3.org/2000/svg" id="svg548" width="749.409" height="499.606" x="0" y="0" version="1"><metadata id="metadata8024"/><path id="path581" style="font-size:12px;fill-rule:evenodd;stroke-width:1pt" d="m 9.7926e-6,397.89931 0,-296.07239 L 220.36459,249.78216 9.7926e-6,397.89931 z"/><path id="path597" style="font-size:12px;fill:#002395;fill-rule:evenodd;stroke-width:1pt;fill-opacity:1" d="m 150.35734,499.6063 247.40131,-166.51211 351.65086,0 0,166.51211 -599.05217,0 z"/><path id="path598" style="font-size:12px;fill:#de3831;fill-rule:evenodd;stroke-width:1pt;fill-opacity:1" d="m 150.35734,0.01198972 599.05217,0 0,166.54010028 -351.65086,0 c 0,0 -244.10417,-168.1871123 -247.40131,-166.54010028 z"/><path id="path599" style="font-size:12px;fill:#ffb612;fill-rule:evenodd;stroke-width:1pt;fill-opacity:1" d="m 9.7926e-6,62.474521 c 0,0 0,39.352399 0,39.352399 L 220.36459,249.78216 9.7926e-6,397.89931 l 0,39.3504 L 277.55696,249.78216 9.7925999e-6,62.474521 z"/><path id="path600" style="font-size:12px;fill:#007a4d;fill-rule:evenodd;stroke-width:1pt;fill-opacity:1" d="m 9.7926e-6,62.474521 0,-62.46253128 92.5956502074,0 294.02266,198.94266028 362.79119,0 0,101.73697 -362.79119,0 -294.02266,198.91468 -92.5956502074,0 0,-62.35659 L 277.55696,249.78216 9.7926e-6,62.474521 z"/><path id="path601" style="font-size:12px;fill:#fff;fill-rule:evenodd;stroke-width:1pt" d="m 92.59566,0.01198972 57.76168,0 247.40131,166.54010028 351.65086,0 0,32.40256 -362.79119,0 L 92.59566,0.01198972 z"/><path id="path602" style="font-size:12px;fill:#fff;fill-rule:evenodd;stroke-width:1pt" d="m 92.59566,499.6063 57.76168,0 247.40131,-166.51211 351.65086,0 0,-32.40257 -362.79119,0 L 92.59566,499.6063 z"/></svg>